<svg xmlns="http://www.w3.org/2000/svg" viewBox="0 0 48 48" width="48" height="48" role="img"
     aria-label="About.me icon">
  <path
    d="m39.07 18.294c-2.7457 0-4.2655 2.0278-4.5875 4.2315h9.2149c-0.24997-2.0998-1.7338-4.2295-4.6275-4.2295m-4.5195 7.2331c0.46994 2.3117 2.3857 3.9395 5.0634 3.9395 1.4498 0 3.5396-0.53994 4.7674-1.8278l2.3497 2.6997c-2.1277 2.2197-5.3054 2.8517-7.4791 2.8517-5.2794 0-9.3929-3.8116-9.3929-9.2109 0-5.0694 3.7876-9.2389 9.1389-9.2389 5.1694 0 8.9989 3.9595 8.9989 9.2069v1.5318h-13.444v0.04599zm-12.972 7.6591v-11.379c0-1.9518-0.8699-3.0716-2.6757-3.0716-1.6278 0-2.7097 1.1699-3.4336 2.0138v12.479h-4.6994v-11.399c0-1.9518-0.8299-3.0636-2.6357-3.0636-1.6258 0-2.7497 1.1719-3.4336 2.0118v12.479h-4.6974v-18.246h4.6994v2.2997c0.79991-0.92589 2.6037-2.5197 5.4194-2.5197 2.4937 0 4.1915 1.0519 4.9534 3.1796 1.0479-1.5218 2.9996-3.1796 5.8193-3.1796 3.3996 0 5.3794 2.0198 5.3794 5.9253v12.479h-4.7054l0.01-0.014z"
    stroke-width="1.9998"/>
</svg>
