<svg xmlns="http://www.w3.org/2000/svg" viewBox="0 0 36 36" width="48" height="48" role="img" aria-label="Behance icon">
  <path
    d="m10.412 6.749c1.0532 0 2.0104 0.09002 2.8806 0.28206 0.86569 0.19504 1.6054 0.49511 2.228 0.9152 0.61514 0.42009 1.0997 0.97522 1.4403 1.6804 0.33758 0.70516 0.51011 1.5753 0.51011 2.5956 0 1.1102-0.25506 2.0404-0.76067 2.7906-0.50711 0.75017-1.2558 1.3503-2.2535 1.8304 1.3593 0.39009 2.3645 1.0802 3.0337 2.0555 0.67215 0.99022 0.99772 2.1755 0.99772 3.5408 0 1.1252-0.19504 2.0855-0.61514 2.8956-0.42009 0.82518-1.0052 1.5003-1.7404 2.0254-0.72016 0.52212-1.5753 0.9002-2.5056 1.1508-0.9152 0.24756-1.8784 0.38108-2.8656 0.38108h-10.759v-22.133h10.409zm15.006 18.247c0.66015 0.64214 1.6099 0.96471 2.8416 0.96471 0.8852 0 1.6504-0.22205 2.2955-0.67065 0.63614-0.4351 1.0202-0.9152 1.1703-1.4103h3.8829c-0.60463 1.9204-1.5723 3.3007-2.8506 4.1259-1.2753 0.84018-2.8266 1.2453-4.621 1.2453-1.2558 0-2.3765-0.19504-3.4088-0.60013-1.0097-0.40509-1.8604-0.97522-2.5806-1.7104-0.69615-0.73516-1.2348-1.6204-1.6159-2.6556-0.37958-1.0352-0.55962-2.1755-0.55962-3.4058 0-1.2048 0.20254-2.3105 0.60463-3.3457 0.40509-1.0502 0.96621-1.9204 1.6804-2.6856 0.74266-0.76517 1.5949-1.3428 2.6046-1.7914s2.1005-0.64964 3.3307-0.64964c1.3653 0 2.5356 0.24605 3.5708 0.78467 1.0052 0.51011 1.8304 1.2303 2.4906 2.1005 0.66015 0.87919 1.1252 1.8904 1.4103 3.0307 0.28506 1.1252 0.37508 2.3105 0.31507 3.5708h-11.538c0 1.2603 0.42009 2.4485 1.0652 3.0982l-0.12003 0.04501zm-15.363 0.07502c0.4756 0 0.93021-0.04501 1.3593-0.13953 0.4351-0.09002 0.82218-0.24756 1.1448-0.4501 0.31507-0.20254 0.58513-0.49211 0.78017-0.87469 0.19504-0.36008 0.28506-0.85519 0.28506-1.4403 0-1.1252-0.33007-1.9354-0.96021-2.4305-0.64514-0.48011-1.4853-0.72016-2.5356-0.72016h-5.2647v6.0763h5.1911v-0.04501zm20.415-8.4769c-0.52812-0.57763-1.4103-0.8882-2.486-0.8882-0.70216 0-1.2828 0.11102-1.7494 0.35708-0.4531 0.22505-0.82518 0.52512-1.1102 0.8852-0.28506 0.36008-0.4756 0.72016-0.58813 1.1252-0.11252 0.39009-0.18004 0.75017-0.20254 1.0652h7.1446c-0.10502-1.1252-0.49511-1.9504-1.0202-2.5356v0.015zm-20.685-0.92271c0.86119 0 1.5753-0.20104 2.138-0.61814 0.56112-0.40509 0.83118-1.0802 0.83118-2.0074 0-0.51611-0.10502-0.93771-0.27006-1.2693-0.19504-0.33007-0.4501-0.58513-0.75017-0.76817-0.31507-0.18604-0.67515-0.31507-1.0802-0.38558-0.40509-0.079518-0.84018-0.11102-1.2603-0.11102h-4.5445v5.1611h4.9361zm13.65-7.4386h8.954v2.1815h-8.954v-2.1995 0.015003z"
    stroke-width="1.5003"/>
</svg>
