<svg xmlns="http://www.w3.org/2000/svg" viewBox="0 0 24 24" width="48" height="48" role="img" aria-label="Github icon">
  <path
    d="m12 0.29138c-6.6326 0-12.005 5.3721-12.005 12.005 0 5.3121 3.4364 9.7989 8.2083 11.39 0.60024 0.10504 0.82533-0.2551 0.82533-0.57023 0-0.28511-0.015006-1.2305-0.015006-2.2359-3.0162 0.55522-3.7965-0.73529-4.0366-1.4106-0.13505-0.34514-0.72029-1.4106-1.2305-1.6957-0.42017-0.22509-1.0204-0.78031-0.015006-0.79532 0.94538-0.01501 1.6206 0.87035 1.8457 1.2305 1.0804 1.8157 2.8061 1.3055 3.4964 0.99039 0.10504-0.78031 0.42017-1.3055 0.7653-1.6056-2.6711-0.30012-5.4622-1.3355-5.4622-5.9274 0-1.3055 0.46518-2.3859 1.2305-3.2263-0.12005-0.30012-0.54021-1.5306 0.12005-3.1813 0 0 1.0054-0.31513 3.3013 1.2305 0.96038-0.27011 1.9808-0.40516 3.0012-0.40516s2.0408 0.13505 3.0012 0.40516c2.2959-1.5606 3.3013-1.2305 3.3013-1.2305 0.66026 1.6507 0.2401 2.8811 0.12005 3.1813 0.7653 0.84033 1.2305 1.9058 1.2305 3.2263 0 4.6068-2.8061 5.6272-5.4772 5.9274 0.43517 0.37515 0.81032 1.0954 0.81032 2.2209 0 1.6056-0.01501 2.8962-0.01501 3.3013 0 0.31513 0.22509 0.69028 0.82533 0.57023a12.024 12.024 0 0 0 8.1783-11.39c0-6.6326-5.3721-12.005-12.005-12.005z"
    fill-rule="evenodd" stroke-width="1.5006"/>
</svg>
