<svg xmlns="http://www.w3.org/2000/svg" viewBox="0 0 472.5 472.5" width="48" height="48" role="img"
     aria-label="Last.fm icon">
  <path
    d="m396.76 203.02c-4.0334-1.3805-7.9363-2.6604-11.685-3.8924-29.748-9.7549-40.034-13.973-40.034-30.537 0-14.363 10.202-24.398 24.808-24.398 11.983 0 20.26 4.9622 28.568 17.121 3.2351 4.7386 9.5253 6.2842 14.587 3.5848l28.732-15.313c2.6439-1.4075 4.6156-3.8128 5.4799-6.6818 0.8643-2.866 0.55069-5.9616-0.87331-8.5965-16.69-30.905-41.883-46.572-74.876-46.572-24.897 0-45.988 7.8432-61.002 22.683-14.882 14.71-22.748 35.192-22.748 59.227 0 50.428 31.957 71.287 87.125 90.265 31.578 10.97 38.961 15.211 38.961 31.693 0 20.374-17.597 35.163-41.842 35.163-0.72926 0-1.4705-0.012-2.2208-0.0375-26.075-0.91081-34.099-13.637-46.2-42.46-19.427-46.237-42.138-101.64-43.823-105.85-0.018-0.0465-0.0375-0.096-0.0555-0.14405-24.633-59.323-73.611-93.346-134.38-93.346-80.153 0-145.36 67.893-145.36 151.35 0 83.426 65.208 151.29 145.36 151.29 43.841 0 84.868-20.242 112.56-55.54 2.5119-3.2006 3.0971-7.5086 1.538-11.266l-17.318-41.686c-1.6881-4.0679-5.5954-6.7734-9.9935-6.9309-4.419-0.15756-8.484 2.2688-10.46 6.2047-14.971 29.86-44.219 48.41-76.33 48.41-47.504 0-86.151-40.594-86.151-90.486 0-49.907 38.647-90.512 86.151-90.512 34.556 0 66.173 21.417 78.675 53.293 0.0345 0.0825 0.0675 0.16656 0.10203 0.24909l42.876 102.01 4.9412 11.429c20.724 50.421 51.427 73.003 99.573 73.221h0.19957c57.542 0 100.94-40.062 100.94-93.187 0-53.267-29.02-73.838-75.826-89.758z"
    stroke-width="1.5005"/>
</svg>
