<svg xmlns="http://www.w3.org/2000/svg" viewBox="0 0 465 465" width="48" height="48" role="img"
     aria-label="LinkedIn icon">
  <g transform="matrix(1.4997 0 0 1.4997 .042718 .042718)">
    <path
      d="m72.16 99.73h-62.233c-2.762 0-5 2.239-5 5v199.93c0 2.762 2.238 5 5 5h62.233c2.762 0 5-2.238 5-5v-199.93c0-2.761-2.238-5-5-5z"/>
    <path
      d="M 41.066,0.341 C 18.422,0.341 0,18.743 0,41.362 0,63.991 18.422,82.4 41.066,82.4 63.692,82.4 82.099,63.99 82.099,41.362 82.1,18.743 63.692,0.341 41.066,0.341 Z"/>
    <path
      d="m230.45 94.761c-24.995 0-43.472 10.745-54.679 22.954v-12.985c0-2.761-2.238-5-5-5h-59.599c-2.762 0-5 2.239-5 5v199.93c0 2.762 2.238 5 5 5h62.097c2.762 0 5-2.238 5-5v-98.918c0-33.333 9.054-46.319 32.29-46.319 25.306 0 27.317 20.818 27.317 48.034v97.204c0 2.762 2.238 5 5 5h62.12c2.762 0 5-2.238 5-5v-109.66c0-49.565-9.451-100.23-79.546-100.23z"/>
  </g>
</svg>
