<svg xmlns="http://www.w3.org/2000/svg" viewBox="0 0 465 465" width="48" height="48" role="img"
     aria-label="Twitter icon">
  <path
    d="m454.4 86.124c-7.3029 3.2391-14.811 5.9728-22.483 8.1922 9.0829-10.272 16.008-22.359 20.235-35.585 0.94774-2.9647-0.0345-6.2097-2.4713-8.1487-2.4338-1.9404-5.8154-2.1729-8.4951-0.58483-16.293 9.6633-33.871 16.608-52.302 20.669-18.566-18.142-43.783-28.466-69.852-28.466-55.027 0-99.795 44.767-99.795 99.792 0 4.3338 0.27442 8.6435 0.81728 12.893-68.283-5.9953-131.76-39.557-175.36-93.031-1.5536-1.906-3.9469-2.9332-6.3972-2.7367-2.4518 0.19195-4.6547 1.5746-5.8933 3.6994-8.8415 15.171-13.516 32.523-13.516 50.177 0 24.046 8.5851 46.86 23.75 64.687-4.6112-1.597-9.0859-3.593-13.357-5.9638-2.2928-1.2761-5.0911-1.2566-7.3689 0.0495-2.2794 1.3061-3.7084 3.7084-3.7684 6.3342-0.01049 0.44237-0.01049 0.88474-0.01049 1.3331 0 35.892 19.318 68.207 48.852 85.819-2.5373-0.25343-5.0731-0.62083-7.5923-1.1022-2.5973-0.49636-5.268 0.41388-7.0195 2.3948-1.7545 1.9794-2.3348 4.7387-1.5266 7.2579 10.932 34.13 39.077 59.235 73.103 66.889-28.22 17.675-60.493 26.934-94.371 26.934-7.069 0-14.178-0.41537-21.137-1.2386-3.4565-0.41089-6.7616 1.63-7.9387 4.9171-1.1772 3.2886 0.07048 6.955 3.0111 8.84 43.522 27.906 93.846 42.655 145.53 42.655 101.6 0 165.16-47.911 200.59-88.104 44.177-50.117 69.514-116.45 69.514-182 0-2.7382-0.042-5.5034-0.12596-8.2597 17.43-13.132 32.436-29.024 44.647-47.291 1.855-2.7742 1.654-6.4407-0.49486-8.9944-2.1459-2.5553-5.7224-3.3815-8.7755-2.0289z"
    stroke-width="1.4996"/>
</svg>
