<svg xmlns="http://www.w3.org/2000/svg" viewBox="0 0 32 32" class="icon--drupal" width="64" height="64" role="img"
     aria-label="Drupal icon">
  <path
    d="m23.545 21.683c-0.085 0.187-0.278 0.497-0.538 0.505-0.463 0.017-0.513-0.221-0.856-0.728-0.754-1.113-7.318-7.974-8.546-9.303-1.081-1.167-0.152-1.99 0.278-2.421 0.539-0.542 2.117-2.117 2.117-2.117 2.409 2.273 4.593 4.727 6.553 7.359l0.106 0.149c0.829 1.138 1.327 2.564 1.327 4.107 0 0.879-0.162 1.721-0.457 2.497l0.016-0.048zm-7.545 6.393c-2.177 0-3.941-1.764-3.941-3.941v-1e-3c0.015-0.998 0.384-1.907 0.987-2.61l-5e-3 6e-3c0.711-0.869 2.958-3.313 2.958-3.313s2.214 2.481 2.954 3.306c0.613 0.68 0.988 1.585 0.988 2.578v0.036-2e-3 1e-3c0 2.177-1.764 3.941-3.941 3.941zm-6.589-5.894c-0.703-0.024-3.295-4.493 1.516-9.255l3.182 3.479c0.05 0.049 0.081 0.118 0.081 0.194 0 0.085-0.039 0.161-0.101 0.211h-1e-3c-1.627 1.531-3.075 3.217-4.333 5.044l-0.068 0.105c-0.082 0.232-0.205 0.225-0.277 0.221zm11.306-14.777c-2.045-1.686-3.653-3.828-4.68-6.274l-0.04-0.107c-1.065 2.553-2.671 4.695-4.687 6.359l-0.027 0.022c-3.162 3.157-6.745 6.739-6.745 12.107v0.015c0 6.33 5.131 11.461 11.461 11.461s11.461-5.131 11.461-11.461v-0.016 1e-3c0-5.37-3.583-8.949-6.745-12.107z"/>
</svg>
