<svg width="800" height="800" version="1.1" viewBox="0 0 44.444 44.444" xmlns="http://www.w3.org/2000/svg">
  <g transform="translate(-1.7778 -1.7778)">
    <path d="m4 11h40v16h-40z" fill="#448aff"/>
    <path d="m42 41h-18v-14h20v12c0 1.1-0.9 2-2 2z" fill="#1565c0"/>
    <path d="m24 41h-18c-1.1 0-2-0.9-2-2v-12h20z" fill="#e0e0e0"/>
    <path d="m44 11h-40v-2c0-1.1 0.9-2 2-2h36c1.1 0 2 0.9 2 2z" fill="#9e9e9e"/>
    <path d="m8 9c0 0.6-0.4 1-1 1s-1-0.4-1-1 0.4-1 1-1 1 0.4 1 1zm3 0c0 0.6-0.4 1-1 1s-1-0.4-1-1 0.4-1 1-1 1 0.4 1 1z"
          fill="#fff"/>
    <path d="m7 29h14v1h-14zm0 3h14v1h-14zm0 3h14v1h-14zm0 3h9v1h-9z" fill="#9e9e9e"/>
  </g>
</svg>
